<svg width="29" height="29" viewBox="0 0 29 29" fill="none" xmlns="http://www.w3.org/2000/svg">
<g opacity="0.5">
<path d="M14.5936 4.06482C13.6311 4.06482 12.8436 4.85232 12.8436 5.81482C12.8436 6.77732 13.6311 7.56482 14.5936 7.56482C15.5561 7.56482 16.3436 6.77732 16.3436 5.81482C16.3436 4.85232 15.5561 4.06482 14.5936 4.06482ZM14.5936 21.5648C13.6311 21.5648 12.8436 22.3523 12.8436 23.3148C12.8436 24.2773 13.6311 25.0648 14.5936 25.0648C15.5561 25.0648 16.3436 24.2773 16.3436 23.3148C16.3436 22.3523 15.5561 21.5648 14.5936 21.5648ZM14.5936 12.8148C13.6311 12.8148 12.8436 13.6023 12.8436 14.5648C12.8436 15.5273 13.6311 16.3148 14.5936 16.3148C15.5561 16.3148 16.3436 15.5273 16.3436 14.5648C16.3436 13.6023 15.5561 12.8148 14.5936 12.8148Z" fill="#1A1E3D"/>
</g>
</svg>
