<svg width="28" height="29" viewBox="0 0 28 29" fill="none" xmlns="http://www.w3.org/2000/svg">
<g opacity="0.5">
<path d="M14.0069 4.06482C20.2977 4.06482 25.5313 8.59121 26.6286 14.5648C25.5313 20.5384 20.2977 25.0648 14.0069 25.0648C7.716 25.0648 2.48236 20.5384 1.3851 14.5648C2.48236 8.59121 7.716 4.06482 14.0069 4.06482ZM14.0069 22.7315C18.9484 22.7315 23.1769 19.2922 24.2472 14.5648C23.1769 9.83752 18.9484 6.39815 14.0069 6.39815C9.06522 6.39815 4.83678 9.83752 3.76643 14.5648C4.83678 19.2922 9.06522 22.7315 14.0069 22.7315ZM14.0069 19.8148C11.1073 19.8148 8.75682 17.4643 8.75682 14.5648C8.75682 11.6653 11.1073 9.31482 14.0069 9.31482C16.9063 9.31482 19.2569 11.6653 19.2569 14.5648C19.2569 17.4643 16.9063 19.8148 14.0069 19.8148ZM14.0069 17.4815C15.6177 17.4815 16.9235 16.1756 16.9235 14.5648C16.9235 12.954 15.6177 11.6482 14.0069 11.6482C12.3961 11.6482 11.0902 12.954 11.0902 14.5648C11.0902 16.1756 12.3961 17.4815 14.0069 17.4815Z" fill="#1A1E3D"/>
</g>
</svg>
